[Header]			# Header keywords are followed by a single value
FileType htr		# single word string
DataType HTRS		# Hierarchical translations followed by rotations and Scale
FileVersion 1		# integer
NumSegments 20		# integer
NumFrames 8		# integer
DataFrameRate 60	# integer
EulerRotationOrder ZYX	# one word string
CalibrationUnits mm	# one word string
RotationUnits Degrees	# one word string
GlobalAxisofGravity Y	# character, X or Y or Z
BoneLengthAxis Y
ScaleFactor 1.000000
[SegmentNames&Hierarchy]
#CHILD	PARENT
LowerTorso	GLOBAL
UpperTorso	LowerTorso
LCollarBone	UpperTorso
RCollarBone	UpperTorso
LUpArm	LCollarBone
RUpArm	RCollarBone
LLowArm	LUpArm
RLowArm	RUpArm
LHand	LLowArm
RHand	RLowArm
LPelvis	LowerTorso
RPelvis	LowerTorso
LThigh	LPelvis
RThigh	RPelvis
LLowLeg	LThigh
RLowLeg	RThigh
LFoot	LLowLeg
RFoot	RLowLeg
Neck	UpperTorso
Head	Neck
[BasePosition]
#SegmentName Tx, Ty, Tz, Rx, Ry, Rz, BoneLength
LowerTorso	0.000000	0.000000	0.000000	0.000000	0.000000	0.000000	247.497849
UpperTorso	0.000000	247.497849	0.000000	-3.483188	-0.016176	-0.898562	303.935425
LCollarBone	0.000000	303.935425	0.000000	-2.778975	2.380151	-103.909637	160.814774
RCollarBone	0.000000	303.935425	0.000000	1.923138	-2.431442	97.423370	173.085861
LUpArm	0.000000	160.814774	0.000000	9.905276	-0.146364	3.830753	266.228302
RUpArm	0.000000	173.085861	0.000000	3.559436	0.163580	4.186032	250.544907
LLowArm	0.000000	266.228302	0.000000	0.604391	2.460426	18.478745	239.401855
RLowArm	0.000000	250.544907	0.000000	-4.677841	-1.676118	-16.763147	247.676224
LHand	0.000000	239.401855	0.000000	-2.922581	-1.504997	-10.879651	178.693573
RHand	0.000000	247.676224	0.000000	8.087741	0.221451	14.771751	171.097885
LPelvis	0.000000	0.000000	0.000000	25.628080	-1.004481	-103.107483	127.213554
RPelvis	0.000000	0.000000	0.000000	7.212610	1.026056	95.806335	154.731140
LThigh	0.000000	127.213554	0.000000	-8.629928	-24.934669	-78.343170	392.414856
RThigh	0.000000	154.731140	0.000000	-0.087953	7.045837	82.361420	403.151337
LLowLeg	0.000000	392.414856	0.000000	-11.135172	-0.396179	6.207254	411.539612
RLowLeg	0.000000	403.151337	0.000000	-15.879393	-0.038285	-2.567663	396.965240
LFoot	0.000000	411.539612	0.000000	86.993790	-9.419292	-7.421347	182.020935
RFoot	0.000000	396.965240	0.000000	85.685738	19.489246	8.810133	181.714371
Neck	0.000000	303.935425	0.000000	26.917892	0.010495	-0.245093	141.112030
Head	0.000000	141.112030	0.000000	-34.290924	-1.751020	-3.852423	164.098740
#Beginning of Data. Separated by tabs.
[LowerTorso]
#Fr	Tx	Ty	Tz	Rx	Ry	Rz	SF
63	1030.602417	857.268005	-2104.900391	3.729537	-16.171307	1.150072	1.000000
64	1031.397705	851.985901	-2105.670898	3.955514	-17.579336	1.066932	1.000000
65	1032.663452	846.268555	-2105.632568	4.108126	-18.896862	0.977573	1.000000
66	1034.473999	840.237061	-2104.932129	4.180705	-20.154053	0.991767	1.000000
67	1036.503784	833.976685	-2103.923828	4.201700	-21.441530	1.192332	1.000000
68	1038.622437	827.569153	-2102.841797	4.190594	-22.775736	1.601440	1.000000
69	1040.770508	821.316040	-2101.717773	4.223926	-24.071510	2.121844	1.000000
70	1042.658936	815.623535	-2100.563721	4.403253	-25.224310	2.561157	1.000000
[UpperTorso]
#Fr	Tx	Ty	Tz	Rx	Ry	Rz	SF
63	0.000000	0.000000	0.000000	13.151090	-1.250234	2.728791	1.000000
64	0.000000	0.000000	0.000000	14.024004	-1.437745	2.466656	1.000000
65	0.000000	0.000000	0.000000	14.938123	-1.835700	2.219760	1.000000
66	0.000000	0.000000	0.000000	15.847525	-2.488672	1.834589	1.000000
67	0.000000	0.000000	0.000000	16.702091	-3.444600	1.178680	1.000000
68	0.000000	0.000000	0.000000	17.482769	-4.710836	0.223636	1.000000
69	0.000000	0.000000	0.000000	18.157667	-6.236083	-0.919561	1.000000
70	0.000000	0.000000	0.000000	18.709362	-7.878365	-2.051598	1.000000
[LCollarBone]
#Fr	Tx	Ty	Tz	Rx	Ry	Rz	SF
63	0.000000	0.000000	0.000000	9.298121	6.069847	-16.047543	1.000000
64	0.000000	0.000000	0.000000	9.643892	6.191202	-15.725122	1.000000
65	0.000000	0.000000	0.000000	9.949280	6.343580	-15.619082	1.000000
66	0.000000	0.000000	0.000000	10.117575	6.444609	-15.626387	1.000000
67	0.000000	0.000000	0.000000	10.186340	6.472319	-15.581571	1.000000
68	0.000000	0.000000	0.000000	10.122136	6.368432	-15.343553	1.000000
69	0.000000	0.000000	0.000000	10.045419	6.193565	-14.872797	1.000000
70	0.000000	0.000000	0.000000	10.000113	5.985810	-14.214600	1.000000
[RCollarBone]
#Fr	Tx	Ty	Tz	Rx	Ry	Rz	SF
63	0.000000	0.000000	0.000000	4.064157	-1.165398	17.058420	1.000000
64	0.000000	0.000000	0.000000	4.478829	-1.365203	17.239574	1.000000
65	0.000000	0.000000	0.000000	4.791955	-1.522767	17.465611	1.000000
66	0.000000	0.000000	0.000000	4.986233	-1.627923	17.695547	1.000000
67	0.000000	0.000000	0.000000	5.153227	-1.720995	17.908348	1.000000
68	0.000000	0.000000	0.000000	5.312753	-1.811107	18.105255	1.000000
69	0.000000	0.000000	0.000000	5.482653	-1.907134	18.294548	1.000000
70	0.000000	0.000000	0.000000	5.656718	-2.006850	18.487371	1.000000
[LUpArm]
#Fr	Tx	Ty	Tz	Rx	Ry	Rz	SF
63	0.000000	0.000000	0.000000	-12.300267	27.331278	-62.711819	1.000000
64	0.000000	0.000000	0.000000	-12.025295	27.995504	-62.710323	1.000000
65	0.000000	0.000000	0.000000	-11.899749	28.220022	-61.856339	1.000000
66	0.000000	0.000000	0.000000	-11.840517	27.840446	-60.428875	1.000000
67	0.000000	0.000000	0.000000	-11.886915	26.812405	-58.782078	1.000000
68	0.000000	0.000000	0.000000	-11.978052	25.366558	-57.267986	1.000000
69	0.000000	0.000000	0.000000	-12.182838	23.844391	-56.061729	1.000000
70	0.000000	0.000000	0.000000	-12.430655	22.663849	-55.179184	1.000000
[RUpArm]
#Fr	Tx	Ty	Tz	Rx	Ry	Rz	SF
63	0.000000	0.000000	0.000000	-11.957652	-37.229416	52.601749	1.000000
64	0.000000	0.000000	0.000000	-12.141174	-39.488621	53.736881	1.000000
65	0.000000	0.000000	0.000000	-11.894125	-40.768074	53.716019	1.000000
66	0.000000	0.000000	0.000000	-11.171248	-40.998795	52.626389	1.000000
67	0.000000	0.000000	0.000000	-10.121039	-40.318317	50.788532	1.000000
68	0.000000	0.000000	0.000000	-8.853587	-39.158867	48.538113	1.000000
69	0.000000	0.000000	0.000000	-7.566525	-37.972485	46.146938	1.000000
70	0.000000	0.000000	0.000000	-6.310419	-37.159428	43.708229	1.000000
[LLowArm]
#Fr	Tx	Ty	Tz	Rx	Ry	Rz	SF
63	0.000000	0.000000	0.000000	17.558170	-2.695126	-0.040206	1.000000
64	0.000000	0.000000	0.000000	17.849787	-2.739372	-0.047841	1.000000
65	0.000000	0.000000	0.000000	18.155785	-2.785755	-0.056094	1.000000
66	0.000000	0.000000	0.000000	18.286959	-2.805624	-0.059709	1.000000
67	0.000000	0.000000	0.000000	18.259918	-2.801529	-0.058960	1.000000
68	0.000000	0.000000	0.000000	17.840189	-2.737917	-0.047587	1.000000
69	0.000000	0.000000	0.000000	17.140787	-2.631729	-0.029671	1.000000
70	0.000000	0.000000	0.000000	16.129612	-2.477814	-0.006067	1.000000
[RLowArm]
#Fr	Tx	Ty	Tz	Rx	Ry	Rz	SF
63	0.000000	0.000000	0.000000	28.890007	2.452739	0.592401	1.000000
64	0.000000	0.000000	0.000000	28.960819	2.458248	0.595340	1.000000
65	0.000000	0.000000	0.000000	29.100121	2.469076	0.601142	1.000000
66	0.000000	0.000000	0.000000	29.357851	2.489071	0.611945	1.000000
67	0.000000	0.000000	0.000000	29.776299	2.521429	0.629677	1.000000
68	0.000000	0.000000	0.000000	30.189608	2.553260	0.647422	1.000000
69	0.000000	0.000000	0.000000	30.472868	2.575001	0.659717	1.000000
70	0.000000	0.000000	0.000000	30.458601	2.573908	0.659095	1.000000
[LHand]
#Fr	Tx	Ty	Tz	Rx	Ry	Rz	SF
63	0.000000	0.000000	0.000000	34.121269	-21.947008	-16.664028	1.000000
64	0.000000	0.000000	0.000000	34.703434	-21.395878	-17.525015	1.000000
65	0.000000	0.000000	0.000000	35.457302	-21.317177	-18.597502	1.000000
66	0.000000	0.000000	0.000000	35.841366	-21.331659	-19.590212	1.000000
67	0.000000	0.000000	0.000000	35.193417	-20.959599	-20.070017	1.000000
68	0.000000	0.000000	0.000000	33.214737	-19.845942	-19.780952	1.000000
69	0.000000	0.000000	0.000000	30.358791	-18.063700	-18.952553	1.000000
70	0.000000	0.000000	0.000000	27.254036	-15.946935	-17.993401	1.000000
[RHand]
#Fr	Tx	Ty	Tz	Rx	Ry	Rz	SF
63	0.000000	0.000000	0.000000	7.802054	9.441509	-6.094100	1.000000
64	0.000000	0.000000	0.000000	11.148119	11.504186	-3.726124	1.000000
65	0.000000	0.000000	0.000000	14.546433	13.059229	-1.514522	1.000000
66	0.000000	0.000000	0.000000	17.415022	13.584756	0.256801	1.000000
67	0.000000	0.000000	0.000000	19.350370	12.864075	1.469053	1.000000
68	0.000000	0.000000	0.000000	20.447613	11.263071	2.247634	1.000000
69	0.000000	0.000000	0.000000	20.994276	9.397365	2.699487	1.000000
70	0.000000	0.000000	0.000000	21.227957	7.853215	2.792439	1.000000
[LPelvis]
#Fr	Tx	Ty	Tz	Rx	Ry	Rz	SF
63	0.000000	0.000000	0.000000	0.000000	0.000000	0.000000	1.000000
64	0.000000	0.000000	0.000000	0.000000	0.000000	0.000000	1.000000
65	0.000000	0.000000	0.000000	0.000000	0.000000	0.000000	1.000000
66	0.000000	0.000000	0.000000	0.000000	0.000000	0.000000	1.000000
67	0.000000	0.000000	0.000000	0.000000	0.000000	0.000000	1.000000
68	0.000000	0.000000	0.000000	0.000000	0.000000	0.000000	1.000000
69	0.000000	0.000000	0.000000	0.000000	0.000000	0.000000	1.000000
70	0.000000	0.000000	0.000000	0.000000	0.000000	0.000000	1.000000
[RPelvis]
#Fr	Tx	Ty	Tz	Rx	Ry	Rz	SF
63	0.000000	0.000000	0.000000	0.000000	0.000000	0.000000	1.000000
64	0.000000	0.000000	0.000000	0.000000	0.000000	0.000000	1.000000
65	0.000000	0.000000	0.000000	0.000000	0.000000	0.000000	1.000000
66	0.000000	0.000000	0.000000	0.000000	0.000000	0.000000	1.000000
67	0.000000	0.000000	0.000000	0.000000	0.000000	0.000000	1.000000
68	0.000000	0.000000	0.000000	0.000000	0.000000	0.000000	1.000000
69	0.000000	0.000000	0.000000	0.000000	0.000000	0.000000	1.000000
70	0.000000	0.000000	0.000000	0.000000	0.000000	0.000000	1.000000
[LThigh]
#Fr	Tx	Ty	Tz	Rx	Ry	Rz	SF
63	0.000000	0.000000	0.000000	15.013519	-4.292173	-5.904848	1.000000
64	0.000000	0.000000	0.000000	16.572067	-5.923649	-6.020242	1.000000
65	0.000000	0.000000	0.000000	18.008732	-8.008856	-6.148191	1.000000
66	0.000000	0.000000	0.000000	19.344368	-10.282245	-6.389014	1.000000
67	0.000000	0.000000	0.000000	20.588736	-12.542592	-6.809916	1.000000
68	0.000000	0.000000	0.000000	21.761564	-14.597466	-7.459392	1.000000
69	0.000000	0.000000	0.000000	22.915518	-16.253002	-8.279966	1.000000
70	0.000000	0.000000	0.000000	24.092356	-17.406939	-9.073466	1.000000
[RThigh]
#Fr	Tx	Ty	Tz	Rx	Ry	Rz	SF
63	0.000000	0.000000	0.000000	19.077843	-5.558649	2.496456	1.000000
64	0.000000	0.000000	0.000000	21.149128	-6.196114	2.585511	1.000000
65	0.000000	0.000000	0.000000	23.129545	-6.843028	2.662490	1.000000
66	0.000000	0.000000	0.000000	24.993385	-7.339314	2.625379	1.000000
67	0.000000	0.000000	0.000000	26.776482	-7.701349	2.411013	1.000000
68	0.000000	0.000000	0.000000	28.517570	-7.969390	1.998608	1.000000
69	0.000000	0.000000	0.000000	30.210562	-7.964979	1.516424	1.000000
70	0.000000	0.000000	0.000000	31.837215	-7.506936	1.193472	1.000000
[LLowLeg]
#Fr	Tx	Ty	Tz	Rx	Ry	Rz	SF
63	0.000000	0.000000	0.000000	-24.468628	2.020524	0.089589	1.000000
64	0.000000	0.000000	0.000000	-26.978764	2.225654	0.049871	1.000000
65	0.000000	0.000000	0.000000	-29.385223	2.420462	0.003390	1.000000
66	0.000000	0.000000	0.000000	-31.669617	2.603392	-0.048267	1.000000
67	0.000000	0.000000	0.000000	-33.756680	2.768568	-0.101805	1.000000
68	0.000000	0.000000	0.000000	-35.637409	2.915627	-0.155175	1.000000
69	0.000000	0.000000	0.000000	-37.326794	3.046145	-0.207209	1.000000
70	0.000000	0.000000	0.000000	-38.861759	3.163337	-0.257806	1.000000
[RLowLeg]
#Fr	Tx	Ty	Tz	Rx	Ry	Rz	SF
63	0.000000	0.000000	0.000000	-24.989338	-1.407840	-0.062235	1.000000
64	0.000000	0.000000	0.000000	-27.683241	-1.557939	-0.032204	1.000000
65	0.000000	0.000000	0.000000	-30.484169	-1.712308	0.006467	1.000000
66	0.000000	0.000000	0.000000	-33.283920	-1.864522	0.052614	1.000000
67	0.000000	0.000000	0.000000	-35.965855	-2.008034	0.103743	1.000000
68	0.000000	0.000000	0.000000	-38.461754	-2.139290	0.157311	1.000000
69	0.000000	0.000000	0.000000	-40.621590	-2.250886	0.208244	1.000000
70	0.000000	0.000000	0.000000	-42.365891	-2.339552	0.252424	1.000000
[LFoot]
#Fr	Tx	Ty	Tz	Rx	Ry	Rz	SF
63	0.000000	0.000000	0.000000	10.194430	0.755350	7.521084	1.000000
64	0.000000	0.000000	0.000000	11.376021	0.315151	7.253913	1.000000
65	0.000000	0.000000	0.000000	12.542317	-0.182844	6.689678	1.000000
66	0.000000	0.000000	0.000000	13.612265	-0.653615	6.015033	1.000000
67	0.000000	0.000000	0.000000	14.661141	-1.087772	5.356445	1.000000
68	0.000000	0.000000	0.000000	15.750505	-1.472018	4.874387	1.000000
69	0.000000	0.000000	0.000000	16.828295	-1.785225	4.672541	1.000000
70	0.000000	0.000000	0.000000	17.802990	-2.028355	4.707067	1.000000
[RFoot]
#Fr	Tx	Ty	Tz	Rx	Ry	Rz	SF
63	0.000000	0.000000	0.000000	4.707215	1.851151	1.218169	1.000000
64	0.000000	0.000000	0.000000	5.069476	1.989037	1.324838	1.000000
65	0.000000	0.000000	0.000000	5.366395	2.059306	1.286857	1.000000
66	0.000000	0.000000	0.000000	5.723869	2.152801	1.265766	1.000000
67	0.000000	0.000000	0.000000	6.249645	2.321959	1.332401	1.000000
68	0.000000	0.000000	0.000000	6.962116	2.554390	1.438277	1.000000
69	0.000000	0.000000	0.000000	7.813546	2.804468	1.475518	1.000000
70	0.000000	0.000000	0.000000	8.647915	3.039387	1.471735	1.000000
[Neck]
#Fr	Tx	Ty	Tz	Rx	Ry	Rz	SF
63	0.000000	0.000000	0.000000	-3.133235	-2.061078	0.782067	1.000000
64	0.000000	0.000000	0.000000	-3.559748	-1.817636	0.718201	1.000000
65	0.000000	0.000000	0.000000	-3.990808	-1.529575	0.631312	1.000000
66	0.000000	0.000000	0.000000	-4.423440	-1.190043	0.532686	1.000000
67	0.000000	0.000000	0.000000	-4.854096	-0.753494	0.440975	1.000000
68	0.000000	0.000000	0.000000	-5.286826	-0.193167	0.393876	1.000000
69	0.000000	0.000000	0.000000	-5.719914	0.434807	0.407579	1.000000
70	0.000000	0.000000	0.000000	-6.152963	1.065108	0.452634	1.000000
[Head]
#Fr	Tx	Ty	Tz	Rx	Ry	Rz	SF
63	0.000000	0.000000	0.000000	-5.780378	-4.981175	-0.895290	1.000000
64	0.000000	0.000000	0.000000	-6.722119	-4.558055	-0.710788	1.000000
65	0.000000	0.000000	0.000000	-7.663162	-4.006144	-0.567649	1.000000
66	0.000000	0.000000	0.000000	-8.605011	-3.302219	-0.391002	1.000000
67	0.000000	0.000000	0.000000	-9.542360	-2.438426	-0.101318	1.000000
68	0.000000	0.000000	0.000000	-10.500301	-1.442462	0.369001	1.000000
69	0.000000	0.000000	0.000000	-11.455763	-0.373931	1.003305	1.000000
70	0.000000	0.000000	0.000000	-12.400018	0.676541	1.737290	1.000000
[EndOfFile]
